<!DOCTYPE svg PUBLIC "-//W3C//DTD SVG 1.1//EN" "http://www.w3.org/Graphics/SVG/1.1/DTD/svg11.dtd">
<!-- Uploaded to: SVG Repo, www.svgrepo.com, Transformed by: SVG Repo Mixer Tools -->
<svg fill="#000000" width="64px" height="64px" viewBox="-0.96 -0.96 25.92 25.92" xmlns="http://www.w3.org/2000/svg" stroke="#000000" stroke-width="0.144">
<g id="SVGRepo_bgCarrier" stroke-width="0" transform="translate(0.2400000000000002,0.2400000000000002), scale(0.98)">
<rect x="-0.96" y="-0.96" width="25.92" height="25.92" rx="12.96" fill="#272525" strokewidth="0"/>
</g>
<g id="SVGRepo_tracerCarrier" stroke-linecap="round" stroke-linejoin="round" stroke="#CCCCCC" stroke-width="0.336"> <g id="Dark"> <path d="M12.741,20.917a9.389,9.389,0,0,1-1.395-.105,9.141,9.141,0,0,1-1.465-17.7,1.177,1.177,0,0,1,1.21.281,1.273,1.273,0,0,1,.325,1.293,8.112,8.112,0,0,0-.353,2.68,8.266,8.266,0,0,0,4.366,6.857,7.628,7.628,0,0,0,3.711.993,1.242,1.242,0,0,1,.994,1.963h0A9.148,9.148,0,0,1,12.741,20.917ZM10.261,4.05a.211.211,0,0,0-.065.011,8.137,8.137,0,1,0,9.131,12.526h0a.224.224,0,0,0,.013-.235.232.232,0,0,0-.206-.136A8.619,8.619,0,0,1,14.946,15.1a9.274,9.274,0,0,1-4.883-7.7,9.123,9.123,0,0,1,.4-3.008.286.286,0,0,0-.069-.285A.184.184,0,0,0,10.261,4.05Z"/> </g> </g>
<g id="SVGRepo_iconCarrier"> <g id="Dark"> <path d="M12.741,20.917a9.389,9.389,0,0,1-1.395-.105,9.141,9.141,0,0,1-1.465-17.7,1.177,1.177,0,0,1,1.21.281,1.273,1.273,0,0,1,.325,1.293,8.112,8.112,0,0,0-.353,2.68,8.266,8.266,0,0,0,4.366,6.857,7.628,7.628,0,0,0,3.711.993,1.242,1.242,0,0,1,.994,1.963h0A9.148,9.148,0,0,1,12.741,20.917ZM10.261,4.05a.211.211,0,0,0-.065.011,8.137,8.137,0,1,0,9.131,12.526h0a.224.224,0,0,0,.013-.235.232.232,0,0,0-.206-.136A8.619,8.619,0,0,1,14.946,15.1a9.274,9.274,0,0,1-4.883-7.7,9.123,9.123,0,0,1,.4-3.008.286.286,0,0,0-.069-.285A.184.184,0,0,0,10.261,4.05Z"/> </g> </g>
</svg>