<!DOCTYPE svg PUBLIC "-//W3C//DTD SVG 1.1//EN" "http://www.w3.org/Graphics/SVG/1.1/DTD/svg11.dtd">
<!-- Uploaded to: SVG Repo, www.svgrepo.com, Transformed by: SVG Repo Mixer Tools -->
<svg fill="#503f02" height="64px" width="64px" version="1.1" id="Capa_1" xmlns="http://www.w3.org/2000/svg" xmlns:xlink="http://www.w3.org/1999/xlink" viewBox="-31.92 -31.92 309.40 309.40" xml:space="preserve" stroke="#503f02" stroke-width="2.210058">
<g id="SVGRepo_bgCarrier" stroke-width="0" transform="translate(0,0), scale(1)">
<rect x="-31.92" y="-31.92" width="309.40" height="309.40" rx="154.7" fill="#9a7818" strokewidth="0"/>
</g>
<g id="SVGRepo_tracerCarrier" stroke-linecap="round" stroke-linejoin="round" stroke="#6d5c09" stroke-width="7.36686"> <path d="M244.062,180.838L150.227,55.725c-1.417-1.889-3.639-3-6-3c-2.361,0-4.584,1.111-6,3l-38.904,51.873L83.876,87.002 c-1.416-1.889-3.639-3-6-3c-2.361,0-4.583,1.111-6,3L1.5,180.838c-1.704,2.272-1.978,5.314-0.708,7.855 c1.27,2.54,3.867,4.145,6.708,4.145h230.562c2.841,0,5.438-1.605,6.708-4.145C246.041,186.151,245.767,183.11,244.062,180.838z M22.5,177.838l55.376-73.836l15.446,20.596c1.416,1.889,3.639,3,6,3c2.361,0,4.583-1.111,6-3l38.904-51.873l78.836,105.113H22.5z"/> </g>
<g id="SVGRepo_iconCarrier"> <path d="M244.062,180.838L150.227,55.725c-1.417-1.889-3.639-3-6-3c-2.361,0-4.584,1.111-6,3l-38.904,51.873L83.876,87.002 c-1.416-1.889-3.639-3-6-3c-2.361,0-4.583,1.111-6,3L1.5,180.838c-1.704,2.272-1.978,5.314-0.708,7.855 c1.27,2.54,3.867,4.145,6.708,4.145h230.562c2.841,0,5.438-1.605,6.708-4.145C246.041,186.151,245.767,183.11,244.062,180.838z M22.5,177.838l55.376-73.836l15.446,20.596c1.416,1.889,3.639,3,6,3c2.361,0,4.583-1.111,6-3l38.904-51.873l78.836,105.113H22.5z"/> </g>
</svg>